<svg xmlns="http://www.w3.org/2000/svg" width="1200" height="1200" xmlns:v="https://vecta.io/nano"><path d="M0 0h1200v1200H0V0z" fill="#141414"/><path d="M501.942 171.185c2.581 1.023 3.62 2.273 5.362 4.424 3.428 4.097 7.052 7.887 10.836 11.654l2.081 2.085 6.883 6.876 4.993 4.995 12.268 12.262 14.7 14.696 27.126 27.118 26.852 26.842 1.687 1.687 8.484 8.483 60.069 60.05 58.351 58.33 1.817 1.817 18.067 18.063 36.804 36.796 1.709 1.709L913 582c-2.249 3.969-4.396 6.207-8 9l-1.687 2.25L902 595h-2v2c-1.62 1.712-3.296 3.372-5 5l-2.562 2.688c-2.134 2.024-3.746 3.216-6.437 4.313v2c-1.68 1.621-1.68 1.621-3.875 3.438-2.587 2.147-4.237 3.73-6.125 6.563h-2v2c-4.471 4-4.471 4-7 4v3c-2.375 2.688-2.375 2.688-5 5h-2v2c-2.375 2.625-2.375 2.625-5 5h-2v2c-2.375 2.625-2.375 2.625-5 5h-2v2c-1.62 1.712-3.296 3.372-5 5l-2.562 2.688c-2.134 2.024-3.746 3.216-6.437 4.313v2c-1.62 1.712-3.296 3.372-5 5l-2.562 2.688c-2.134 2.024-3.746 3.216-6.437 4.313v2c-1.62 1.712-3.296 3.372-5 5l-2.375 2.438C801.854 695 801.854 695 799 695v3c-2.375 2.688-2.375 2.688-5 5h-2v2c-4.471 4-4.471 4-7 4l-.711 1.696c-1.607 2.873-3.577 4.841-5.908 7.169l-1.44 1.447-4.812 4.799-3.47 3.475-9.564 9.55-10.303 10.298-17.86 17.843-25.822 25.798-41.891 41.855-40.701 40.66-2.533 2.531-12.579 12.571L503 993c-3.816-1.779-6.476-4.185-9.423-7.142l-1.621-1.603-5.359-5.336-3.849-3.819-10.437-10.389-6.513-6.49-20.357-20.303-23.542-23.44-18.181-18.115-10.87-10.82-10.202-10.182-3.76-3.733-5.098-5.105-1.533-1.485c-2.042-2.102-3.204-3.474-3.471-6.438 1.867-3.991 4.767-6.676 7.891-9.736l2.139-2.143 7.149-7.091 5.104-5.091 11.017-10.954 15.935-15.854 25.86-25.747 1.565-1.555 6.276-6.239 17.271-17.174 1.562-1.553 25.758-25.653 15.899-15.812 12.176-12.116 5.004-4.967 6.809-6.779 2.02-1.985c3.195-3.213 5.431-5.72 6.781-10.15 1.438-2.02 1.438-2.02 3-3.812l1.563-1.832C551 671 551 671 553 671l.738-2.625c1.37-3.666 3.123-6.236 5.449-9.375 7.022-9.803 12.268-20.128 14.813-32h2l1-10h2c.749-10.409 1.239-20.789 1.295-31.227l.062-4.416c.198-9.983-.784-18.922-3.371-28.578-.929-3.561-1.621-7.09-2.236-10.716-2.885-13.685-10.044-27.938-18-39.375C555 500 555 500 554 496.75c-1.233-3.391-1.917-3.211-5-4.75-1.768-1.791-1.768-1.791-3.699-4.072-6.994-7.958-14.596-15.312-22.111-22.773l-5.088-5.064-10.907-10.849-17.229-17.158-2.941-2.931-4.454-4.44-16.737-16.679-1.543-1.538-24.849-24.722-25.535-25.436-14.329-14.261-13.442-13.393-4.949-4.914-6.718-6.706-2.009-1.963c-4.324-4.392-4.324-4.392-4.99-7.858.81-3.427 2.927-5.681 5.218-8.242l1.318-1.539c3.573-4.129 7.248-8.098 11.557-11.461 2.582-2.119 4.386-4.372 6.438-7 2.416-2.539 4.799-4.843 7.563-7 2.492-1.897 2.492-1.897 4.25-4.312 2.484-3.052 5.25-5.438 8.23-7.992 3.297-2.856 6.273-5.819 8.957-9.258 2.119-2.582 4.372-4.386 7-6.437a94.43 94.43 0 0 0 7.813-8.375c2.803-3.329 5.928-6.055 9.238-8.867 2.438-2.199 4.492-4.604 6.582-7.129a58.58 58.58 0 0 1 8.93-8.629c2.582-2.119 4.386-4.372 6.438-7 2.416-2.539 4.799-4.843 7.563-7 2.492-1.897 2.492-1.897 4.25-4.312 1.923-2.363 3.741-4.062 6.063-6 3.51-2.983 6.079-6.156 8.754-9.883 4.542-5.979 4.542-5.979 8.313-5.62z" fill="#fefefe"/><path d="M501 167c2.625 1.313 2.625 1.313 5 3v2h2v2h2v2l3 1v2h2v2l1.938.813C519 183 519 183 520 186h2v2h2v2l3 1v2h2v2h2c1.625 1.375 1.625 1.375 3 3v2h2v2h2c1.625 1.375 1.625 1.375 3 3v2h2v2h2c1.625 1.375 1.625 1.375 3 3v2h2v2h2c1.625 1.375 1.625 1.375 3 3v2h2v2l3 1v2h2v2h2v2l3 1v2h2v2h2v2l3 1v2h2v2h2v2l3 1v2h2v2h2v2l3 1v2h2v2h2v2l3 1v2h2v2h2v2l3 1v2h2v2h2c1.625 1.375 1.625 1.375 3 3v2h2v2h2c1.625 1.375 1.625 1.375 3 3v2h2v2h2c1.625 1.375 1.625 1.375 3 3v2h2v2l1.606.624c3.391 1.95 5.951 4.648 8.691 7.399l1.884 1.868 6.139 6.129 4.273 4.26 8.942 8.94 11.474 11.439 8.817 8.805 4.232 4.216 5.903 5.909 1.773 1.749 1.623 1.644 1.409 1.408C693 357 693 357 693.803 359.303c1.621 3.654 4.183 6.097 6.984 8.865l1.814 1.828 6.041 6.034 4.321 4.337 11.759 11.757 12.297 12.301 20.663 20.647 23.885 23.89 20.497 20.505 12.246 12.25 11.521 11.507 4.227 4.23 5.775 5.758 1.685 1.705c3.005 2.959 5.517 4.703 9.484 6.082 1.724 1.254 1.724 1.254 3.297 2.694l1.831 1.661 1.957 1.819 2.101 1.924 18.996 17.973 12.758 11.989c4.2 3.818 8.299 7.722 12.35 11.698 1.54 1.482 3.111 2.934 4.714 4.349 9.558 8.487 14.708 17.774 15.669 30.657.734 15.572-3.366 25.477-13.614 37.187-7.253 7.909-14.868 15.448-22.595 22.89l-15.179 15.07-28.019 27.783L813.5 726.11l-1.742 1.736-8.756 8.734-62.09 61.498-60.304 59.668-1.875 1.865-16.793 16.705-66.036 65.548-5.216 5.169-39.996 39.542-3.085 3.039-1.527 1.504-10.495 10.374-13.816 13.62-5.011 4.955-6.787 6.674-1.986 1.994-1.83 1.768-1.567 1.545c-1.59.95-1.59.95-3.623.747-3.164-1.282-5.286-3.713-7.642-6.105l-1.704-1.694-5.636-5.657-4.046-4.04-10.976-11.002-11.478-11.492-19.265-19.306-24.758-24.802-21.259-21.289-6.849-6.858-10.738-10.768-3.951-3.96-5.371-5.391-1.598-1.596c-5.998-6.046-4.985-12.115-5.046-20.187l-.082-4.783-.091-6.916-.069-2.141c.016-3.886.617-6.317 3-9.309C366 853 366 853 368 853v-2h2l.813-1.937C372 847 372 847 375 846v-2l3.575-1.114c4.748-1.793 7.716-4.48 11.227-8.067l1.924-1.905 6.303-6.329 4.55-4.534 12.296-12.322 12.875-12.887 21.594-21.646 24.993-25.032 24.043-24.067 10.238-10.247 12.029-12.068 4.425-4.431 6.014-6.045 1.79-1.774c2.735-2.782 4.398-4.697 5.122-8.533h2v-2h2v-3l2-1 1-3c1.875-2.187 1.875-2.187 4-4h3l.188-3c.644-4.565 2.734-8.574 5.813-12h3v-4h2l.375-2.125c.88-4.046 2.253-7.87 3.688-11.75 1.075-3.215 1.075-3.215 1.313-7.062.379-3.607 1.632-5.809 3.57-8.887 5.56-11.471 4.48-23.598 1.805-35.551l-.621-2.961c-1.433-6.532-3.47-12.535-6.129-18.664l-.934-2.239c-10.154-24.23-26.787-41.639-45.121-59.913l-5.167-5.162-11.079-11.061-16.024-16.001-26.013-25.982-1.569-1.566-11.031-11.013-12.638-12.617-1.573-1.571-25.948-25.918-15.993-15.968-12.228-12.212-5.024-5.013-6.834-6.827-2.027-2.016-1.843-1.847-1.594-1.591c-3.599-3.925-3.654-7.06-3.626-12.108l-.006-2.252.011-4.71-.013-7.209.008-4.578-.012-2.178c.035-3.7.17-5.284 2.278-8.447l2.875-.875c3.746-1.349 4.962-2.84 7.125-6.125l1-3h2v-2l1.938-.812c2.394-1.074 2.394-1.074 3.063-4.187h2v-2l1.938-.812c2.394-1.074 2.394-1.074 3.063-4.187h2v-2l1.938-.812c2.394-1.074 2.394-1.074 3.063-4.187h2v-2l1.938-.812c2.394-1.074 2.394-1.074 3.063-4.187h2l.329-1.805c.753-2.464 1.595-3.499 3.399-5.311l1.73-1.758 1.878-1.86 1.925-1.933 4.04-4.024 6.176-6.195 3.922-3.91 1.866-1.884C433.655 233 433.655 233 437 233v-2l1.938-.812c2.394-1.074 2.394-1.074 3.063-4.187l2.438-1.437c2.719-1.658 3.457-2.647 4.563-5.562h2v-2l1.938-.812c2.394-1.074 2.394-1.074 3.063-4.187h2v-2l1.938-.812c2.394-1.074 2.394-1.074 3.063-4.187h2v-2l1.938-.812c2.394-1.074 2.394-1.074 3.063-4.187h2v-2l1.938-.812c2.394-1.074 2.394-1.074 3.063-4.187h2l.295-1.771c.849-2.688 1.997-3.909 3.978-5.901l2-2.012 2.102-2.066 2.078-2.113 2.008-1.996 1.837-1.827C495 172 495 172 498 172l.375-1.937L499 168l2-1zm-9 11c-1.549 1.963-2.986 3.981-4.434 6.02-2.251 2.846-4.91 5.064-7.68 7.391-3.305 2.785-6.229 5.747-8.887 9.152-2.119 2.582-4.372 4.386-7 6.438-2.539 2.416-4.843 4.799-7 7.563-2.112 2.574-4.407 4.363-7 6.438l-1.812 2.313c-1.921 2.36-3.757 4.107-6.062 6.063-3.26 2.782-6.029 5.7-8.758 8.996a58.58 58.58 0 0 1-8.93 8.629c-2.582 2.119-4.386 4.372-6.437 7-3.976 4.209-8.324 7.998-12.633 11.859-3.383 3.059-6.559 6.105-9.367 9.703-2.119 2.582-4.372 4.386-7 6.438-2.539 2.416-4.843 4.799-7 7.563-2 2.438-2 2.438-4.312 4.188-4.119 3.448-9.354 8.114-9.946 13.682.306 3.034.912 3.843 3.043 5.964l1.882 1.91 2.102 2.056 2.206 2.217 7.393 7.339 5.271 5.268 11.389 11.338 16.479 16.408 26.75 26.645 25.964 25.841 1.613 1.608 17.439 17.383 4.628 4.614 3.051 3.042 19.415 19.332 11.135 11.083 5.171 5.141 7.05 7.016 2.075 2.056c2.681 2.676 5.184 5.285 7.531 8.267L551 494h2l.625 2.438c1.18 3.058 2.286 5.012 4.141 7.641 3.296 4.866 5.876 9.916 8.359 15.234l1.317 2.807c4.868 10.524 7.903 20.629 9.847 32.021.655 3.866.655 3.866 1.741 7.608 1.021 4.05 1.245 7.962 1.2 12.126l-.001 2.205-.023 4.598-.02 6.865c-.024 9.851-.459 19.634-1.186 29.457h-2l-1 10h-2l-.594 2.316c-3.488 12.493-9.331 23.169-17.008 33.59-1.703 2.55-2.502 5.179-3.398 8.094l-3 1c-1.592 1.455-1.592 1.455-3.062 3.25l-1.535 1.766c-1.504 1.907-1.504 1.907-2.064 4.162-1.945 4.101-4.937 6.803-8.153 9.957l-2.148 2.143-7.161 7.091-5.119 5.091-11.038 10.954-15.956 15.854-25.882 25.747-1.565 1.555-22.019 21.857-1.568 1.555-1.566 1.553-25.795 25.653-15.929 15.812-12.18 12.116-5.018 4.967-6.806 6.779-2.044 1.985c-3.42 3.324-3.42 3.324-4.61 7.748 1.619 3.186 3.786 5.507 6.314 7.977l1.624 1.634 5.422 5.384 3.872 3.874 10.543 10.493 11.007 10.975 20.856 20.771 23.738 23.652L501 993c3.694-1.55 6.046-3.795 8.865-6.613l1.447-1.438 4.799-4.806 3.475-3.466 9.55-9.552 10.298-10.29 20.172-20.17 16.384-16.387 2.353-2.352 4.732-4.73 44.385-44.397 38.13-38.128 44.243-44.234 4.711-4.713 2.342-2.343 16.381-16.375 19.938-19.945 10.183-10.184 9.303-9.311 3.383-3.379 4.563-4.572 2.571-2.572c2.011-1.839 2.011-1.839 1.791-4.041l1.813-.875c2.381-1.172 2.381-1.172 5.188-3.125v-2h2c2.687-2.271 2.687-2.271 5-5v-3l1.688-.75c4.818-2.604 8.516-6.358 12.313-10.25l2.813-2.687c2.417-2.024 2.417-2.024 2.188-4.312l1.688-.687c2.971-1.686 4.958-3.843 7.313-6.312l2.813-2.687c2.417-2.024 2.417-2.024 2.188-4.312l1.688-.687c2.971-1.686 4.958-3.843 7.313-6.312l2.813-2.687c2.417-2.024 2.417-2.024 2.188-4.312l1.813-.812c2.186-1.187 3.601-2.283 5.188-4.187v-2h2c2.667-2.333 2.667-2.333 5-5v-2h2c2.687-2.271 2.687-2.271 5-5v-3l1.813-.875c2.381-1.172 2.381-1.172 5.188-3.125v-2h2c1.712-1.62 3.372-3.296 5-5l2.813-2.687c2.417-2.024 2.417-2.024 2.188-4.312l1.688-.687c2.971-1.686 4.958-3.843 7.313-6.312l2.813-2.687c2.417-2.024 2.417-2.024 2.188-4.312l1.688-.687c4.748-2.695 8.019-7.043 11.313-11.312-4.141-4.936-8.444-9.586-13.008-14.131l-2.075-2.078-6.88-6.873-4.984-4.986-12.257-12.252-14.685-14.681-27.103-27.094-26.838-26.827-1.686-1.686-8.478-8.477-60.047-60.028-58.31-58.289-1.815-1.815-18.047-18.043-36.786-36.777-1.709-1.709-102.412-102.375-2.189-2.188-3.987-3.985-1.762-1.761-1.515-1.514c-1.017-1.017-2.011-2.057-2.988-3.112-4.017-3.669-8.582 2.847-11.441 5.684z" fill="#3a3a3a"/><path d="M501 167c2.625 1.313 2.625 1.313 5 3v2h2v2h2v2l3 1v2h2v2l1.938.813C519 183 519 183 520 186h2v2h2v2l3 1v2h2v2h2c1.625 1.375 1.625 1.375 3 3v2h2v2h2c1.625 1.375 1.625 1.375 3 3v2h2v2h2c1.625 1.375 1.625 1.375 3 3v2h2v2h2c1.625 1.375 1.625 1.375 3 3v2h2v2l3 1v2h2v2h2v2l3 1v2h2v2h2v2l3 1v2h2v2h2v2l3 1v2h2v2h2v2l3 1v2h2v2h2v2l3 1v2h2v2h2v2l3 1v2h2v2h2c1.625 1.375 1.625 1.375 3 3v2h2v2h2c1.625 1.375 1.625 1.375 3 3v2h2v2h2c1.625 1.375 1.625 1.375 3 3v2h2v2l1.606.624c3.391 1.95 5.951 4.648 8.691 7.399l1.884 1.868 6.139 6.129 4.273 4.26 8.942 8.94 11.474 11.439 8.817 8.805 4.232 4.216 5.903 5.909 1.773 1.749 1.623 1.644 1.409 1.408C693 357 693 357 693.847 359.347c1.259 2.896 2.609 4.481 4.835 6.704l2.334 2.352 2.576 2.55 2.728 2.735 7.511 7.491 8.094 8.088 14.029 14.004 20.284 20.248 32.907 32.852 31.971 31.909 1.99 1.987 9.882 9.87L915 582c-1.801 3.221-3.085 5.069-6 7.438-3.216 2.747-4.195 4.802-6 8.563-3.204 4.309-6.745 7.727-11 11-2.71 2.584-4.921 4.881-7 8h-2l-1 2c-1.033.97-2.101 1.903-3.187 2.813l-1.918 1.621-4.895 3.941c-3.007 2.631-5.486 5.405-8.07 8.438-4.088 4.635-8.573 8.91-13.016 13.203-1.834 1.901-3.332 3.829-4.852 5.984-2.375 3.235-4.788 5.635-8.062 8l-2 2-10 10-2.062 2.25C822 679 822 679 820.051 679.414c-2.539.726-3.216 1.632-4.801 3.711-2.212 2.741-4.475 5.004-7.187 7.25-3.681 3.121-6.446 6.556-9.336 10.402-2.583 3.325-5.303 6.74-8.727 9.223h-4l-.712 1.697c-1.602 2.865-3.563 4.825-5.888 7.147l-1.434 1.44-4.792 4.776-3.455 3.459-9.524 9.504-10.26 10.249-17.786 17.76-25.719 25.684-41.728 41.678-2.524 2.52-2.527 2.523-35.484 35.43-2.522 2.519-41.572 41.528-25.667 25.631-17.572 17.547-10.153 10.135-9.28 9.267-3.371 3.363-4.554 4.55-2.564 2.559c-1.958 1.888-1.958 1.888-2.911 4.033-2.162.299-2.162.299-5 0-2.59-1.969-2.59-1.969-5.402-4.788l-1.578-1.561-5.198-5.23-3.741-3.729-10.134-10.172-10.61-10.631-17.809-17.874-20.594-20.657-21.929-21.976-6.32-6.333-9.923-9.97-3.644-3.656-4.968-5-2.81-2.824c-2.189-2.432-3.757-4.748-5.339-7.599l-2-3c.328-3.228 1.498-4.871 3.76-7.12l1.788-1.801 1.982-1.949 2.092-2.093 6.99-6.941 4.991-4.977 10.771-10.717 15.577-15.508 25.275-25.18 1.529-1.522 12.284-12.222 10.737-10.683 1.527-1.52 25.178-25.087 16.932-16.846 10.512-10.473 4.894-4.862 6.653-6.629 1.982-1.949 1.788-1.801 1.553-1.545c1.396-1.823 1.8-3.334 2.207-5.576h2v-2h2v-3l2-1 1-3c1.875-2.187 1.875-2.187 4-4h3l.188-3c.644-4.565 2.734-8.574 5.813-12h3v-4h2l.375-2.125c.88-4.046 2.253-7.87 3.688-11.75 1.075-3.215 1.075-3.215 1.313-7.062.379-3.607 1.632-5.809 3.57-8.887 5.56-11.471 4.48-23.598 1.805-35.551l-.621-2.961c-1.433-6.532-3.47-12.535-6.129-18.664l-.934-2.239c-10.154-24.23-26.787-41.639-45.121-59.913l-5.167-5.162-11.079-11.061-16.024-16.001-26.013-25.982-1.569-1.566-11.031-11.013-12.638-12.617-1.573-1.571-25.948-25.918-15.993-15.968-12.228-12.212-5.024-5.013-6.834-6.827-2.027-2.016-1.843-1.847-1.594-1.591c-3.599-3.925-3.654-7.06-3.626-12.108l-.006-2.252.011-4.71-.013-7.209.008-4.578-.012-2.178c.035-3.7.17-5.284 2.278-8.447l2.875-.875c3.746-1.349 4.962-2.84 7.125-6.125l1-3h2v-2l1.938-.812c2.394-1.074 2.394-1.074 3.063-4.187h2v-2l1.938-.812c2.394-1.074 2.394-1.074 3.063-4.187h2v-2l1.938-.812c2.394-1.074 2.394-1.074 3.063-4.187h2v-2l1.938-.812c2.394-1.074 2.394-1.074 3.063-4.187h2l.329-1.805c.753-2.464 1.595-3.499 3.399-5.311l1.73-1.758 1.878-1.86 1.925-1.933 4.04-4.024 6.176-6.195 3.922-3.91 1.866-1.884C433.655 233 433.655 233 437 233v-2l1.938-.812c2.394-1.074 2.394-1.074 3.063-4.187l2.438-1.437c2.719-1.658 3.457-2.647 4.563-5.562h2v-2l1.938-.812c2.394-1.074 2.394-1.074 3.063-4.187h2v-2l1.938-.812c2.394-1.074 2.394-1.074 3.063-4.187h2v-2l1.938-.812c2.394-1.074 2.394-1.074 3.063-4.187h2v-2l1.938-.812c2.394-1.074 2.394-1.074 3.063-4.187h2l.295-1.771c.849-2.688 1.997-3.909 3.978-5.901l2-2.012 2.102-2.066 2.078-2.113 2.008-1.996 1.837-1.827C495 172 495 172 498 172l.375-1.937L499 168l2-1zm-9 11c-1.549 1.963-2.986 3.981-4.434 6.02-2.251 2.846-4.91 5.064-7.68 7.391-3.305 2.785-6.229 5.747-8.887 9.152-2.119 2.582-4.372 4.386-7 6.438-2.539 2.416-4.843 4.799-7 7.563-2.112 2.574-4.407 4.363-7 6.438l-1.812 2.313c-1.921 2.36-3.757 4.107-6.062 6.063-3.26 2.782-6.029 5.7-8.758 8.996a58.58 58.58 0 0 1-8.93 8.629c-2.582 2.119-4.386 4.372-6.437 7-3.976 4.209-8.324 7.998-12.633 11.859-3.383 3.059-6.559 6.105-9.367 9.703-2.119 2.582-4.372 4.386-7 6.438-2.539 2.416-4.843 4.799-7 7.563-2 2.438-2 2.438-4.312 4.188-4.119 3.448-9.354 8.114-9.946 13.682.306 3.034.912 3.843 3.043 5.964l1.882 1.91 2.102 2.056 2.206 2.217 7.393 7.339 5.271 5.268 11.389 11.338 16.479 16.408 26.75 26.645 25.964 25.841 1.613 1.608 17.439 17.383 4.628 4.614 3.051 3.042 19.415 19.332 11.135 11.083 5.171 5.141 7.05 7.016 2.075 2.056c2.681 2.676 5.184 5.285 7.531 8.267L551 494h2l.625 2.438c1.18 3.058 2.286 5.012 4.141 7.641 3.296 4.866 5.876 9.916 8.359 15.234l1.317 2.807c4.868 10.524 7.903 20.629 9.847 32.021.655 3.866.655 3.866 1.741 7.608 1.021 4.05 1.245 7.962 1.2 12.126l-.001 2.205-.023 4.598-.02 6.865c-.024 9.851-.459 19.634-1.186 29.457h-2l-1 10h-2l-.594 2.316c-3.488 12.493-9.331 23.169-17.008 33.59-1.703 2.55-2.502 5.179-3.398 8.094l-3 1c-1.592 1.455-1.592 1.455-3.062 3.25l-1.535 1.766c-1.504 1.907-1.504 1.907-2.064 4.162-1.945 4.101-4.937 6.803-8.153 9.957l-2.148 2.143-7.161 7.091-5.119 5.091-11.038 10.954-15.956 15.854-25.882 25.747-1.565 1.555-22.019 21.857-1.568 1.555-1.566 1.553-25.795 25.653-15.929 15.812-12.18 12.116-5.018 4.967-6.806 6.779-2.044 1.985c-3.42 3.324-3.42 3.324-4.61 7.748 1.619 3.186 3.786 5.507 6.314 7.977l1.624 1.634 5.422 5.384 3.872 3.874 10.543 10.493 11.007 10.975 20.856 20.771 23.738 23.652L501 993c3.694-1.55 6.046-3.795 8.865-6.613l1.447-1.438 4.799-4.806 3.475-3.466 9.55-9.552 10.298-10.29 20.172-20.17 16.384-16.387 2.353-2.352 4.732-4.73 44.385-44.397 38.13-38.128 44.243-44.234 4.711-4.713 2.342-2.343 16.381-16.375 19.938-19.945 10.183-10.184 9.303-9.311 3.383-3.379 4.563-4.572 2.571-2.572c2.011-1.839 2.011-1.839 1.791-4.041l1.813-.875c2.381-1.172 2.381-1.172 5.188-3.125v-2h2c2.687-2.271 2.687-2.271 5-5v-3l1.688-.75c4.818-2.604 8.516-6.358 12.313-10.25l2.813-2.687c2.417-2.024 2.417-2.024 2.188-4.312l1.688-.687c2.971-1.686 4.958-3.843 7.313-6.312l2.813-2.687c2.417-2.024 2.417-2.024 2.188-4.312l1.688-.687c2.971-1.686 4.958-3.843 7.313-6.312l2.813-2.687c2.417-2.024 2.417-2.024 2.188-4.312l1.813-.812c2.186-1.187 3.601-2.283 5.188-4.187v-2h2c2.667-2.333 2.667-2.333 5-5v-2h2c2.687-2.271 2.687-2.271 5-5v-3l1.813-.875c2.381-1.172 2.381-1.172 5.188-3.125v-2h2c1.712-1.62 3.372-3.296 5-5l2.813-2.687c2.417-2.024 2.417-2.024 2.188-4.312l1.688-.687c2.971-1.686 4.958-3.843 7.313-6.312l2.813-2.687c2.417-2.024 2.417-2.024 2.188-4.312l1.688-.687c4.748-2.695 8.019-7.043 11.313-11.312-4.141-4.936-8.444-9.586-13.008-14.131l-2.075-2.078-6.88-6.873-4.984-4.986-12.257-12.252-14.685-14.681-27.103-27.094-26.838-26.827-1.686-1.686-8.478-8.477-60.047-60.028-58.31-58.289-1.815-1.815-18.047-18.043-36.786-36.777-1.709-1.709-102.412-102.375-2.189-2.188-3.987-3.985-1.762-1.761-1.515-1.514c-1.017-1.017-2.011-2.057-2.988-3.112-4.017-3.669-8.582 2.847-11.441 5.684z" fill="#3c3c3c"/><path d="M816 679l2 1c-3.112 3.812-6.154 7.225-9.937 10.375-3.681 3.121-6.446 6.556-9.336 10.402-2.583 3.325-5.303 6.74-8.727 9.223h-4l-.712 1.697c-1.602 2.865-3.563 4.825-5.888 7.147l-1.434 1.44-4.792 4.776-3.455 3.459-9.524 9.504-10.26 10.249-17.786 17.76-25.719 25.684-41.728 41.678-2.524 2.52-2.527 2.523-35.484 35.43-2.522 2.519-41.572 41.528-25.667 25.631-17.572 17.547-10.153 10.135-9.28 9.267-3.371 3.363-4.554 4.55-2.564 2.559c-1.958 1.888-1.958 1.888-2.911 4.033-2.162.299-2.162.299-5 0-2.59-1.969-2.59-1.969-5.402-4.788l-1.578-1.561-5.198-5.23-3.741-3.729-10.134-10.172-10.61-10.631-17.809-17.874-20.594-20.657-21.929-21.976-6.32-6.333-9.923-9.97-3.644-3.656-4.968-5-2.81-2.824c-2.189-2.432-3.757-4.748-5.339-7.599l-2-3c.325-3.283 1.563-4.937 3.856-7.225l1.853-1.871 2.055-2.028 2.168-2.176 7.246-7.218 5.173-5.174 11.164-11.14 16.142-16.106 26.187-26.132 25.443-25.382 1.583-1.581 7.863-7.851L543 681c0 3 0 3-1.11 4.476l-1.594 1.581-1.828 1.835-2.042 2.003-2.143 2.138-7.179 7.109-5.118 5.09-11.055 10.971-15.98 15.878-25.919 25.784-1.569 1.559-22.055 21.893-1.57 1.557-1.568 1.555-25.822 25.68-15.952 15.835-12.202 12.138-5.028 4.977-6.819 6.793-2.049 1.989c-3.427 3.329-3.427 3.329-4.618 7.76 1.61 3.17 3.759 5.479 6.274 7.936l1.611 1.622 5.38 5.343 3.843 3.845 10.462 10.412 10.923 10.89 20.697 20.612 23.557 23.47L501 992c3.683-1.547 6.026-3.777 8.835-6.589l1.437-1.43 4.767-4.78 3.452-3.447 9.487-9.501 10.231-10.235 17.73-17.747 25.651-25.675 41.638-41.675 40.412-40.453 2.514-2.515 12.486-12.494 86.076-86.155 1.854-1.857 8.5-8.51 1.526-1.528 3.997-4.002L784 711l2.623-2.748C789 706 789 706 792 705v-2h2l.813-1.937C796 699 796 699 799 698v-3c1.574-1.43 1.574-1.43 3.688-2.875 5.264-3.76 9.361-8.003 13.313-13.125z" fill="#999"/><path d="M504 173c2.843 1.293 4.902 2.652 7.106 4.858l1.795 1.782 1.947 1.963 2.096 2.089 6.988 7 5.047 5.042 10.99 10.997 16.341 16.352 27.488 27.504 27.22 27.242 1.709 1.709 8.592 8.594 60.872 60.909 59.14 59.181 1.841 1.842 18.304 18.311 37.288 37.304 1.732 1.733L915 582c-1.801 3.221-3.085 5.069-6 7.438-3.216 2.747-4.195 4.802-6 8.563-3.204 4.309-6.745 7.727-11 11-2.71 2.584-4.921 4.881-7 8h-2l-1 2c-1.033.97-2.101 1.903-3.187 2.813l-1.918 1.621-4.895 3.941c-3.007 2.631-5.486 5.405-8.07 8.438-4.088 4.635-8.573 8.91-13.016 13.203-1.834 1.901-3.332 3.829-4.852 5.984-2.375 3.235-4.788 5.635-8.062 8l-2 2-10 10-2.062 2.313C822 679 822 679 818 679v-2c1.609-1.551 1.609-1.551 3.75-3.312 3.168-2.675 5.681-5.427 8.25-8.687h2v-2c1.609-1.551 1.609-1.551 3.75-3.312 3.168-2.675 5.681-5.427 8.25-8.687h2v-2c2.375-2.625 2.375-2.625 5-5h2v-2h2l.813-1.937C857 638 857 638 860 637v-2h2l.813-1.937C864 631 864 631 867 630v-3c4.343-4 4.343-4 7-4v-2h2l.688-1.687c2.269-3.997 4.931-6.852 9.313-8.312v-2c1.609-1.551 1.609-1.551 3.75-3.312 3.168-2.675 5.681-5.427 8.25-8.687h2v-2c1.609-1.551 1.609-1.551 3.75-3.312 3.152-2.671 5.808-5.329 8.25-8.687-4.143-4.939-8.449-9.59-13.016-14.137l-2.078-2.08-6.889-6.879-4.99-4.99-12.273-12.262-14.704-14.694-27.134-27.115-37.036-37.013-17.252-17.245-1.744-1.744-41.09-41.066-1.816-1.815-27.354-27.334-29.202-29.181-1.818-1.816-41.056-41.032-1.741-1.74-17.203-17.197-37.006-36.982-26.957-26.94-14.618-14.607-13.356-13.348-4.857-4.851-6.55-6.549-1.949-1.94C504 174.114 504 174.114 504 173z" fill="#707070"/><path d="M501.942 171.185c2.581 1.023 3.62 2.273 5.362 4.424 3.428 4.097 7.052 7.887 10.836 11.654l2.081 2.085 6.883 6.876 4.993 4.995 12.268 12.262 14.7 14.696 27.126 27.118 26.852 26.842 1.687 1.687 8.484 8.483 60.069 60.05 58.351 58.33 1.817 1.817 18.067 18.063 36.804 36.796 1.709 1.709L913 582l-2 3-1.082-2.066c-2.46-3.764-5.42-6.713-8.601-9.874l-2.079-2.09-6.947-6.947-5.011-5.025-10.921-10.932-16.239-16.255-30.688-30.714-23.694-23.705-6.815-6.821-1.711-1.713-47.666-47.686-1.816-1.816-9.112-9.112-1.828-1.828-3.66-3.66-56.957-56.998-63.959-64.005-6.816-6.816-1.695-1.695-27.041-27.071-27.163-27.169-16.148-16.164-12.041-12.032-4.883-4.895-6.615-6.602-1.935-1.965-1.784-1.755-1.528-1.528c-1.799-1.438-1.799-1.438-5.563-1.063-1.286 1.417-2.562 2.848-3.73 4.363-2.452 3.161-5.346 5.844-8.375 8.445-4.459 3.832-8.158 7.583-11.562 12.375-2.53 3.45-5.535 6.194-8.895 8.816-2.582 2.119-4.386 4.372-6.437 7-3.085 3.358-6.432 6.178-10 9-5.747 4.55-10.517 9.558-15.305 15.082-2.133 2.413-4.388 4.672-6.695 6.918l-2.437 2.5C423 252 423 252 420.125 254.312c-3.224 2.619-5.787 5.689-8.469 8.848C410 265 410 265 407.438 267c-2.888 2.37-4.782 5.033-6.965 8.043-2.616 3.476-5.616 6.288-9.035 8.957-2.582 2.119-4.386 4.372-6.437 7-4.072 4.298-8.518 8.141-13 12 0-3.484.45-3.884 2.688-6.375l1.664-1.855c2.928-3.144 5.82-6.123 9.211-8.77 2.582-2.119 4.386-4.372 6.438-7 2.416-2.539 4.799-4.843 7.563-7 2.492-1.897 2.492-1.897 4.25-4.312 2.484-3.052 5.25-5.438 8.23-7.992 3.297-2.856 6.273-5.819 8.957-9.258 2.119-2.582 4.372-4.386 7-6.437a94.43 94.43 0 0 0 7.813-8.375c2.803-3.329 5.928-6.055 9.238-8.867 2.438-2.199 4.492-4.604 6.582-7.129a58.58 58.58 0 0 1 8.93-8.629c2.582-2.119 4.386-4.372 6.438-7 2.416-2.539 4.799-4.843 7.563-7 2.492-1.897 2.492-1.897 4.25-4.312 1.923-2.363 3.741-4.062 6.063-6 3.51-2.983 6.079-6.156 8.754-9.883 4.542-5.979 4.542-5.979 8.313-5.62z" fill="#c3c3c3"/><path d="M501 167c2.625 1.313 2.625 1.313 5 3v2h2v2h2v2l3 1v2h2v2l1.938.813C519 183 519 183 520 186h2v2h2v2l3 1v2h2v2h2c1.625 1.375 1.625 1.375 3 3v2h2v2h2c1.625 1.375 1.625 1.375 3 3v2h2v2h2c1.625 1.375 1.625 1.375 3 3v2h2v2h2c1.625 1.375 1.625 1.375 3 3v2h2v2l3 1v2h2v2h2v2l3 1v2h2v2h2v2l3 1v2h2v2h2v2l3 1v2h2v2h2v2l3 1v2h2v2h2v2l3 1v2h2v2h2v2l3 1v2h2v2h2c1.625 1.375 1.625 1.375 3 3v2h2v2h2c1.625 1.375 1.625 1.375 3 3v2h2v2h2c1.625 1.375 1.625 1.375 3 3v2h2v2l1.604.619c3.413 1.968 5.977 4.702 8.725 7.483l1.893 1.892 6.168 6.201 4.288 4.296 11.264 11.314 11.503 11.542L693 357l-1 3-1.186-1.19-69.594-69.793-8.359-8.374-1.681-1.684-26.934-27.02-27.642-27.71-17.053-17.108-13.082-13.103-5.362-5.387-7.324-7.328-2.14-2.175c-3.625-3.582-6.45-6.171-11.643-7.126-2.031.854-2.031.854-3.562 2.563l-1.781 1.723L493 178l-2.562 2.5L488 183l-3.312 3.313L482 189l-3-1 7.813-8 2.236-2.312 2.158-2.187 1.984-2.031C495 172 495 172 498 172l.375-1.937L499 168l2-1z" fill="#353535"/><path d="M562 655c0 2.621-.313 4.509-1 7h-2l-.375 2.313C558 667 558 667 556 670h-2l-.316 1.734c-.795 2.635-1.963 4.326-3.621 6.516l-1.59 2.141L547 682h-2l-.817 1.801c-1.182 2.197-2.358 3.622-4.116 5.377l-1.828 1.84-2.01 1.993-2.134 2.139-7.112 7.094-5.085 5.085-12.396 12.375-14.421 14.402-25.719 25.683-24.986 24.945-1.555 1.554-7.724 7.717L371 858l-2-1 2.712-2.703 63.686-63.541 7.833-7.822 1.575-1.573 25.274-25.209L496 730.282l16.003-15.961 12.257-12.242 5.038-5.02 6.856-6.852 2.034-2.007c3.199-3.23 5.46-5.755 6.812-10.2 1.438-2.02 1.438-2.02 3-3.812l1.563-1.832C551 671 551 671 553 671l.563-2.375c2.024-5.104 5.188-9.229 8.438-13.625z" fill="#e4e4e4"/><path d="M488 182l2 1-5.133 5.129-4.43 4.496c-2.691 2.622-5.552 4.97-8.437 7.375-2.689 2.558-5.123 5.148-7.5 8-3.229 3.875-6.584 7.256-10.5 10.438-2.55 2.178-4.513 4.354-6.59 6.965-1.649 1.869-3.447 3.423-5.348 5.035-3.242 2.76-5.988 5.66-8.695 8.938-1.981 2.355-4.164 4.479-6.367 6.625l-2.437 2.5C422 251 422 251 419.125 253.313c-3.221 2.617-5.78 5.685-8.465 8.836-2.018 2.251-4.26 4.02-6.66 5.852-2.688 2.554-5.125 5.15-7.5 8-4.088 4.906-8.605 8.921-13.5 13-3.443 3.341-6.694 6.791-9.812 10.438l-2.395 2.746c-2.066 3.245-2.165 5.043-1.793 8.816h-2c-.937-2.5-.937-2.5-1-6 1.602-2.281 3.376-4.189 5.336-6.168 1.888-1.831 1.888-1.831 2.664-4.832h2v-2l1.938-.812c2.394-1.074 2.394-1.074 3.063-4.187h2v-2l1.938-.812c2.394-1.074 2.394-1.074 3.063-4.187h2v-2l1.938-.812c2.394-1.074 2.394-1.074 3.063-4.187h2v-2l1.938-.812c2.394-1.074 2.394-1.074 3.063-4.187h2l.329-1.805c.753-2.464 1.595-3.499 3.399-5.311l1.73-1.758 1.878-1.86 1.925-1.933 4.04-4.024 6.176-6.195 3.922-3.91 1.866-1.884C433.655 233 433.655 233 437 233v-2l1.938-.812c2.394-1.074 2.394-1.074 3.063-4.187l2.438-1.437c2.719-1.658 3.457-2.647 4.563-5.562h2v-2l1.938-.812c2.394-1.074 2.394-1.074 3.063-4.187h2v-2l1.938-.812c2.394-1.074 2.394-1.074 3.063-4.187h2v-2l1.938-.812c2.394-1.074 2.394-1.074 3.063-4.187h2v-2l1.938-.812c2.394-1.074 2.394-1.074 3.063-4.187h2v-2l5-3c1.37-1.296 2.715-2.62 4-4z" fill="#595959"/><path d="M456 769l-60 60-1-3h2v-2h2l.313-1.687c1.379-4.639 4.007-8.207 7.688-11.312h3v-2l1.813-1.312c2.533-1.954 3.604-3.933 5.188-6.687 1.563-1.812 1.563-1.812 3-3h2l.68-1.661c1.712-3.034 3.996-5.32 6.441-7.761l1.517-1.53 3.175-3.177 4.845-4.891 3.088-3.09 1.459-1.487C446.656 771 446.656 771 450 771v-2c2-1 2-1 6 0z" fill="#373737"/><path d="M531 694l-53 53-1-3h2v-2h2l.313-1.687c1.379-4.639 4.007-8.207 7.688-11.312h3v-2l1.813-1.312c2.301-1.555 2.301-1.555 3.498-3.948 3.061-4.963 7.465-8.847 11.578-12.943l4.819-4.865 3.074-3.076 2.814-2.823C522 696 522 696 525 696v-2c2-1 2-1 6 0z" fill="#3b3b3b"/><path d="M499 174l4 1-1.434 1.217c-5.435 4.676-10.527 9.624-15.566 14.72l-2.348 2.361L478 199c0-4.076 1.26-4.986 4-8 1.984-1.806 4.006-3.559 6.043-5.305 4.11-3.561 7.639-7.394 10.957-11.695zm-27 28l2 1-4 3 2-4zm-7 7l2 1-4 3 2-4zm-7 7l2 1-4 3 2-4zm-7 7l2 1-50 50c0-4.076 1.26-4.986 4-8 1.984-1.806 4.006-3.559 6.043-5.305 3.297-2.856 6.273-5.819 8.957-9.258 2.119-2.582 4.372-4.386 7-6.437a94.43 94.43 0 0 0 7.813-8.375c2.841-3.371 5.991-6.207 9.355-9.047 1.694-1.459 3.274-2.976 4.832-4.578zm-54 54l2 1-4 3 2-4zm-7 7l2 1-4 3 2-4zm-7 7l2 1-4 3 2-4zm-7 7l2 1-1.715 1.609-2.223 2.141-2.215 2.109c-1.853 2.147-2.455 3.376-2.848 6.141-1-1-1-1-1.312-3.324.411-3.517 1.587-4.316 4.313-6.488l2.25-1.832L376 298z" fill="#f5f5f5"/><path d="M768 435c3.237.582 4.867 1.494 7.176 3.816l1.827 1.814 1.968 2.001 2.1 2.099 6.85 6.899 4.758 4.771 12.507 12.581 12.769 12.829L843 507l-1 3-28.945-28.893-13.439-13.415-12.955-12.935-4.957-4.946-6.912-6.904-2.097-2.086-1.887-1.891-1.654-1.651C768 436 768 436 768 435zm-75-75c3.237.582 4.867 1.494 7.176 3.816l1.827 1.814 1.968 2.001 2.1 2.099 6.85 6.899 4.758 4.771 12.507 12.581 12.769 12.829L768 432l-1 3-28.945-28.893-13.439-13.415-12.955-12.935-4.957-4.946-6.912-6.904-2.097-2.086-1.887-1.891-1.654-1.651C693 361 693 361 693 360z" fill="#363636"/><path d="M453 218l2 1c-4.421 5.185-8.918 9.914-14.121 14.313-2.417 2.171-4.446 4.562-6.512 7.063-1.981 2.355-4.164 4.479-6.367 6.625l-2.437 2.5C423 252 423 252 420.125 254.313c-3.224 2.619-5.787 5.689-8.469 8.848C410 265 410 265 407.438 267c-2.888 2.37-4.782 5.033-6.965 8.043-2.616 3.476-5.616 6.288-9.035 8.957-2.582 2.119-4.386 4.372-6.437 7-4.072 4.298-8.518 8.141-13 12 0-3.484.45-3.884 2.688-6.375l1.664-1.855c2.928-3.144 5.82-6.123 9.211-8.77 2.582-2.119 4.386-4.372 6.438-7 2.416-2.539 4.799-4.843 7.563-7 2.492-1.897 2.492-1.897 4.25-4.312 2.484-3.052 5.25-5.438 8.23-7.992 3.297-2.856 6.273-5.819 8.957-9.258 2.119-2.582 4.372-4.386 7-6.437a94.43 94.43 0 0 0 7.813-8.375c2.797-3.322 5.913-6.044 9.219-8.848 2.975-2.685 5.437-5.676 7.969-8.777z" fill="#b3b3b3"/><path d="M531 694l-8.325 8.545-2.828 2.91-4.081 4.17-2.476 2.539C511 714 511 714 507 714v2h-2v2l-2-1c2.684-5.315 6.83-9.161 11-13.312l2.195-2.244 2.117-2.119 1.926-1.935C522 696 522 696 525 696v-2c2.491-1.245 3.411-.777 6 0z" fill="#383838"/><path d="M847 650l2 1c-3.287 4.654-6.333 8.629-11 12l-2 2-10 10-2.062 2.313C822 679 822 679 818 679v-2c1.609-1.551 1.609-1.551 3.75-3.312 3.168-2.675 5.681-5.427 8.25-8.687h2v-2c1.609-1.551 1.609-1.551 3.75-3.312 3.169-2.677 5.668-5.436 8.25-8.687l3-1z" fill="#5e5e5e"/><path d="M567 642h2c-1.468 5.285-3.923 9.388-6.875 13.938l-2.617 4.09-1.281 2.001c-1.193 1.917-2.31 3.861-3.41 5.831-1.951 3.373-4.002 5.451-6.816 8.141l-9 10-1-3h2v-2h2v-3l2-1 1-3c1.875-2.187 1.875-2.187 4-4h3l.188-3c.644-4.565 2.734-8.574 5.813-12h3v-4h2l.313-2.25c.737-2.947 1.635-4.534 3.688-6.75z" fill="#4b4b4b"/><path d="M402 270l2 1c-3.856 4.738-7.722 9.222-12.562 13-2.582 2.119-4.386 4.372-6.437 7-4.072 4.298-8.518 8.141-13 12 0-3.484.45-3.884 2.688-6.375l1.664-1.855c2.928-3.144 5.82-6.123 9.211-8.77 2.582-2.119 4.386-4.372 6.438-7 3.138-3.299 6.395-6.219 10-9z" fill="#c1c1c1"/><path d="M416 809l-20 20-1-3h2v-2h2l.313-1.687c1.379-4.639 4.007-8.207 7.688-11.312h3v-2c2-1 2-1 6 0z" fill="#3c3c3c"/><path d="M904 597c-3.744 4.445-7.363 8.461-12 12-2.71 2.584-4.921 4.881-7 8h-2l-1 2c1.349-7.016 4.724-10.908 10.07-15.324 2.299-1.996 4.041-4.298 5.93-6.676 3-1 3-1 6 0z" fill="#575757"/><path d="M823 487c3.183 1.405 5.313 3.069 7.759 5.532l2.183 2.184 2.324 2.355 2.404 2.413 7.58 7.642 5.148 5.176L863 525l-1 2-1.421-1.453-6.391-6.485-2.236-2.287-2.158-2.178-1.984-2.015c-1.826-1.803-1.826-1.803-4.809-2.582a177.1 177.1 0 0 1-3-5 89.35 89.35 0 0 0-4.012-4.172l-2.295-2.262-2.381-2.316-4.699-4.609-2.1-2.046C823 488 823 488 823 487zm-75-75c3.183 1.405 5.313 3.069 7.759 5.532l2.183 2.184 2.324 2.355 2.404 2.413 7.58 7.642 5.148 5.176L788 450l-1 2-1.421-1.453-6.391-6.485-2.236-2.287-2.158-2.178-1.984-2.015c-1.826-1.803-1.826-1.803-4.809-2.582a177.1 177.1 0 0 1-3-5 89.35 89.35 0 0 0-4.012-4.172l-2.295-2.262-2.381-2.316-4.699-4.609-2.1-2.046C748 413 748 413 748 412zm-75-75c3.183 1.405 5.313 3.069 7.759 5.532l2.183 2.184 2.324 2.355 2.404 2.413 7.58 7.642 5.148 5.176L713 375l-1 2-1.421-1.453-6.391-6.485-2.236-2.287-2.158-2.178-1.984-2.015c-1.826-1.803-1.826-1.803-4.809-2.582a177.1 177.1 0 0 1-3-5 89.35 89.35 0 0 0-4.012-4.172l-2.295-2.262-2.381-2.316-4.699-4.609-2.1-2.046C673 338 673 338 673 337z" fill="#1f1f1f"/><path d="M554 660c0 3.61-.961 6.558-2 10h-3l-2 4h-2l-1 4h-2v3h-2v2h-2l-.125 2.188c-1.259 4.045-3.511 5.307-6.875 7.813v-3h2v-2h2l.438-1.875C536 684 536 684 537 682h2l2-6h2l.711-1.609c1.676-3.108 3.774-5.845 5.914-8.641l1.273-1.68L554 660z" fill="#2e2e2e"/><path d="M816 679l2 1c-3.112 3.812-6.154 7.225-9.937 10.375-3.679 3.12-6.448 6.544-9.32 10.402-2.634 3.36-5.644 6.294-8.742 9.223l-2-1 1.438-1.312c1.799-1.711 1.799-1.711 2.563-4.687h2l.813-1.937C796 699 796 699 799 698v-3c1.574-1.43 1.574-1.43 3.688-2.875 5.264-3.76 9.361-8.003 13.313-13.125z" fill="#787878"/><path d="M562 655c0 2.621-.313 4.509-1 7h-2l-.375 2.313C558 667 558 667 556 670h-2l-.309 1.734c-.814 2.668-2.038 4.325-3.754 6.516l-1.66 2.141L547 682l-3-1c1.674-3.957 4.131-6.845 7-10h2l.563-2.375c2.024-5.104 5.188-9.229 8.438-13.625z" fill="#bbb"/><path d="M462 203h3v2h-2l-1 4-4 1v2h-2l-1 4-4 1v2h-2l-.312 1.813c-.776 2.47-1.758 3.51-3.687 5.188l-3-1 1.813-1.687c2.271-2.218 2.271-2.218 3.688-4.937 1.688-2.672 2.761-3.006 5.5-4.375l1.5-2.5c1.674-2.789 2.677-3.134 5.5-4.5 1.268-2.034 1.268-2.034 2-4z" fill="#292929"/><path d="M574 614h1c.182 4.629-.16 7.779-2 12l-.437 2.688c-.775 4.566-2.176 8.9-3.562 13.313h-2v2h-2a56.78 56.78 0 0 1 2-6.75c1.14-3.316 1.14-3.316 1.375-7.187.316-3.064 1.032-5.114 2.625-7.75 1.799-2.979 2.588-4.915 3-8.312z" fill="#3a3a3a"/><path d="M498 170h6v2l-2.125.188c-5.732 1.62-9.812 6.648-13.875 10.813l-3.312 3.313L482 189l-3-1 7.813-8 2.236-2.312 2.158-2.187 1.984-2.031C495 172 495 172 498 172v-2z" fill="#3f3f3f"/><path d="M500 171l4 2-2.187.625c-3.021 1.477-4.532 3.188-6.582 5.813-4.614 5.859-10.683 10.618-16.23 15.563 0-3 0-3 1.977-4.98l2.648-2.207c3.96-3.43 7.064-6.808 10.059-11.082 1.788-2.35 3.915-4.035 6.316-5.73z" fill="#a5a5a5"/><path d="M380 285h3v2h-2l-1 4-4 1v2h-2l-.187 1.625c-1.193 3.487-3.374 5.624-5.812 8.375-.75-1.75-.75-1.75-1-4 1.75-1.937 1.75-1.937 4-4l1.5-2.625c1.673-2.65 2.766-3.052 5.5-4.375 1.268-2.034 1.268-2.034 2-4z" fill="#282828"/><path d="M575 540h3c2.621 6.88 2.182 13.722 2 21-2.382-3.573-2.907-6.92-3.625-11.062l-.406-2.221C575 542.334 575 542.334 575 540z" fill="#bdbdbd"/><path d="M884 611l2 1c-4.301 5.766-8.77 11.056-14 16l-2-1 1.438-1.312c1.799-1.711 1.799-1.711 2.563-4.687h2l.688-1.687c1.674-2.949 3.862-4.988 6.313-7.312l1-1z" fill="#6e6e6e"/><path d="M814 684l3 1h-2v2l-5 5h-2v2l-5 4-2 2c0-4.076 1.26-4.986 4-8 2.615-2.396 5.3-4.701 8-7l1-1z" fill="#434343"/><path d="M567 642h2c-1.311 4.462-3.071 7.996-5.625 11.875l-1.914 2.93L560 659l-1-4h2v-4h2l.313-2.25c.737-2.947 1.635-4.534 3.688-6.75z" fill="#595959"/><path d="M558 655h1c.632 5.18-.742 7.669-3.711 11.68L554 668h-2c.475-5.07 3.044-8.975 6-13z" fill="#3d3d3d"/><path d="M567 632h2l-.621 1.793c-1.385 4.062-2.559 7.991-3.379 12.207a123.29 123.29 0 0 1-2 5h-2c.471-6.911 3.206-12.722 6-19z" fill="#222"/><path d="M463 209l2 1c-8.499 10.441-8.499 10.441-14 13 3.452-5.619 6.673-10.068 12-14z" fill="#c9c9c9"/><path d="M434 233l1 3c-1.801 2.664-1.801 2.664-4.312 5.625l-2.488 2.977C426 247 426 247 424 248l2-4 1.313-2.937c1.823-3.309 3.918-5.517 6.688-8.062z" fill="#484848"/><path d="M488 179l4 1-10 9-3-1 4.25-4.562 2.391-2.566L488 179z" fill="#373737"/><path d="M371 850l3 1-1.312 1.137c-3.673 3.221-3.673 3.221-5.062 7.738L368 862h-3v-6l4-2v-2h2v-2z" fill="#535353"/><path d="M574 614h1c.533 6.259-1.182 10.451-4 16h-2c.611-4.152 2.134-7.268 4-11 .699-2.736.699-2.736 1-5z" fill="#282828"/><path d="M432 789l3 1-11 11-1-3h2v-3h3v-2h2v-2h2v-2z" fill="#494949"/><path d="M914 583l1 3c-2.485 3.728-5.46 6.299-9 9l-2 2c0-3 0-3 2.188-5.312L909 589c1.714-1.965 3.354-3.977 5-6z" fill="#424242"/><path d="M578 558c2.421 3.632 2.21 5.383 2.125 9.688l-.055 3.574L580 574c-2.94-5.699-3.124-9.629-2-16z" fill="#565656"/><path d="M576 611l2 1-3 13h-3l.93-1.672c1.165-2.534 1.691-4.84 2.195-7.578l.508-2.703L576 611z" fill="#494949"/><g fill="#272727"><use href="#B"/><use href="#B" x="75" y="-75"/><path d="M420 798l2 1-2 4h-2v2h-2v3l-3-1c4.143-6.429 4.143-6.429 7-9z"/></g><path d="M577 599h1v13l-4 1 3-14z" fill="#343434"/><path d="M373 294l1 3c-1.215 1.824-1.215 1.824-2.937 3.688l-1.715 1.887L368 304c-.684-1.797-.684-1.797-1-4 1.215-1.703 1.215-1.703 2.938-3.25l1.715-1.578L373 294z" fill="#393939"/><g fill="#2b2b2b"><use href="#C"/><use href="#C" x="7" y="-7"/><use href="#C" x="14" y="-14"/><use href="#C" x="82" y="-82"/><use href="#C" x="89" y="-89"/></g><path d="M573 535c1.952 3.904 2.506 6.722 3 11l-1-2h-2v-9z" fill="#656565"/><path d="M420 247l1 3-4 4-3-1 6-6zm28-28l1 3-4 4-3-1 6-6z" fill="#333"/><defs ><path id="B" d="M435 783c1.245 2.491.777 3.411 0 6h-3v2h-2v2l-2-1c1.963-3.534 4.041-6.245 7-9z"/><path id="C" d="M387 278h3v2h-2l-1 4-4 1 4-7z"/></defs></svg>